<svg width="624" height="69" viewBox="0 0 624 69" fill="none" xmlns="http://www.w3.org/2000/svg">
<path d="M38.102 68C35.926 68 34.102 67.456 32.63 66.368C31.222 65.216 30.23 63.68 29.654 61.76C29.142 59.968 28.822 58.016 28.694 55.904C28.63 53.792 28.598 50.816 28.598 46.976C28.598 43.392 28.438 40.736 28.118 39.008C27.862 37.28 27.19 36.416 26.102 36.416C24.822 36.416 23.926 36.992 23.414 38.144C22.902 39.232 22.646 40.8 22.646 42.848C22.646 44.704 22.902 47.616 23.414 51.584C23.478 52.352 23.606 53.568 23.798 55.232C23.99 56.896 24.086 58.272 24.086 59.36C24.086 62.432 23.382 64.608 21.974 65.888C20.63 67.168 18.646 67.808 16.022 67.808C12.886 67.808 10.166 66.112 7.86199 62.72C5.55799 59.328 3.82999 55.104 2.67799 50.048C1.52599 44.928 0.949988 39.904 0.949988 34.976C0.949988 29.088 1.78199 23.616 3.44599 18.56C5.17399 13.504 7.73399 9.44 11.126 6.368C14.582 3.296 18.742 1.75999 23.606 1.75999C27.702 1.75999 30.966 3.04 33.398 5.6C35.83 8.096 37.462 11.136 38.294 14.72C38.998 11.2 40.566 8.16 42.998 5.6C45.494 3.04 48.758 1.75999 52.79 1.75999C57.59 1.75999 61.686 3.264 65.078 6.272C68.534 9.216 71.158 13.344 72.95 18.656C74.806 23.968 75.734 30.112 75.734 37.088C75.734 41.632 75.094 46.336 73.814 51.2C72.534 56 70.742 60 68.438 63.2C66.134 66.4 63.51 68 60.566 68C57.878 68 55.83 67.328 54.422 65.984C53.014 64.64 52.31 62.432 52.31 59.36C52.31 57.952 52.566 55.328 53.078 51.488C53.59 47.392 53.846 44.448 53.846 42.656C53.846 38.496 52.726 36.416 50.486 36.416C49.334 36.416 48.598 37.344 48.278 39.2C48.022 41.056 47.862 44.064 47.798 48.224C47.798 51.36 47.734 53.984 47.606 56.096C47.478 58.144 47.19 60.032 46.742 61.76C46.23 63.616 45.206 65.12 43.67 66.272C42.198 67.424 40.342 68 38.102 68ZM112.845 68.192C108.557 68.192 105.101 66.112 102.477 61.952C99.9167 57.728 98.4127 52.032 97.9647 44.864C97.9007 43.84 97.8687 42.336 97.8687 40.352C97.8687 32.608 99.1487 25.76 101.709 19.808C104.269 13.792 107.885 9.152 112.557 5.888C117.293 2.56 122.797 0.895994 129.069 0.895994C135.341 0.895994 140.813 2.56 145.485 5.888C150.221 9.152 153.837 13.76 156.333 19.712C158.893 25.664 160.173 32.544 160.173 40.352C160.173 42.336 160.141 43.84 160.077 44.864C159.629 52.16 158.125 57.856 155.565 61.952C153.005 66.048 149.549 68.096 145.197 68.096C141.677 68.096 139.213 67.136 137.805 65.216C136.461 63.296 135.789 60.96 135.789 58.208C135.789 56.928 135.885 55.808 136.077 54.848C132.749 54.976 129.805 55.04 127.245 55.04C125.645 55.04 123.885 54.976 121.965 54.848C122.157 55.808 122.253 56.928 122.253 58.208C122.253 61.024 121.549 63.392 120.141 65.312C118.797 67.232 116.365 68.192 112.845 68.192ZM121.293 37.76C124.749 37.632 127.277 37.568 128.877 37.568C130.605 37.568 133.133 37.632 136.461 37.76C136.589 37.056 136.653 36 136.653 34.592C136.653 31.584 136.013 29.152 134.733 27.296C133.453 25.376 131.469 24.416 128.781 24.416C126.157 24.416 124.205 25.344 122.925 27.2C121.645 29.056 121.005 31.456 121.005 34.4C121.005 35.488 121.101 36.608 121.293 37.76ZM207.567 68.096C203.343 68.096 199.279 67.52 195.375 66.368C191.535 65.152 188.399 63.488 185.967 61.376C183.535 59.2 182.319 56.736 182.319 53.984C182.319 51.36 183.119 49.28 184.719 47.744C186.319 46.208 188.335 45.44 190.767 45.44C192.367 45.44 193.743 45.664 194.895 46.112C196.111 46.496 197.423 47.072 198.831 47.84C199.855 48.352 200.719 48.768 201.423 49.088C202.191 49.344 202.991 49.472 203.823 49.472C205.935 49.472 206.991 48.64 206.991 46.976C206.991 46.336 206.543 45.792 205.647 45.344C204.751 44.832 203.247 44.16 201.135 43.328C197.359 41.856 194.287 40.416 191.919 39.008C188.271 36.832 185.743 34.464 184.335 31.904C182.991 29.344 182.319 26.144 182.319 22.304C182.319 18.592 183.503 15.104 185.871 11.84C188.239 8.512 191.471 5.856 195.567 3.872C199.663 1.88799 204.143 0.895994 209.007 0.895994C213.743 0.895994 218.063 1.63199 221.967 3.10399C225.935 4.512 229.039 6.496 231.279 9.056C233.583 11.552 234.735 14.336 234.735 17.408C234.735 20.928 233.679 23.584 231.567 25.376C229.519 27.104 227.215 27.968 224.655 27.968C222.543 27.968 220.943 27.84 219.855 27.584C218.831 27.328 217.807 26.976 216.783 26.528C215.951 26.208 215.247 25.984 214.671 25.856C214.095 25.664 213.295 25.568 212.271 25.568C211.439 25.568 210.639 25.856 209.871 26.432C209.167 26.944 208.815 27.68 208.815 28.64C208.815 29.344 209.231 29.952 210.063 30.464C210.895 30.912 211.855 31.328 212.943 31.712C214.031 32.096 214.799 32.384 215.247 32.576C221.199 34.752 225.583 37.248 228.399 40.064C231.215 42.816 232.623 46.4 232.623 50.816C232.623 56.256 230.415 60.512 225.999 63.584C221.647 66.592 215.503 68.096 207.567 68.096ZM309.727 0.991999C313.311 0.991999 316.063 2.24 317.983 4.736C319.967 7.232 321.311 10.88 322.015 15.68C322.719 20.416 323.071 26.72 323.071 34.592C323.071 42.464 322.719 48.768 322.015 53.504C321.311 58.176 319.999 61.728 318.079 64.16C316.159 66.592 313.375 67.808 309.727 67.808C305.375 67.808 302.303 65.952 300.511 62.24C298.719 58.528 297.663 52.768 297.343 44.96C295.359 45.024 292.095 45.056 287.551 45.056H282.559C282.175 52.864 281.087 58.624 279.295 62.336C277.503 66.048 274.431 67.904 270.079 67.904C266.431 67.904 263.647 66.688 261.727 64.256C259.807 61.824 258.495 58.272 257.791 53.6C257.151 48.864 256.831 42.528 256.831 34.592C256.831 26.656 257.151 20.32 257.791 15.584C258.495 10.848 259.807 7.264 261.727 4.832C263.647 2.336 266.431 1.088 270.079 1.088C273.215 1.088 275.679 2.08 277.471 4.064C279.263 5.984 280.511 8.8 281.215 12.512C281.983 16.16 282.463 20.896 282.655 26.72H289.471C292.991 26.72 295.583 26.752 297.247 26.816C297.439 17.984 298.399 11.488 300.127 7.328C301.919 3.104 305.119 0.991999 309.727 0.991999ZM376.323 50.624C379.587 51.008 382.115 51.84 383.907 53.12C385.763 54.336 386.691 56.288 386.691 58.976C386.691 61.664 385.731 63.648 383.811 64.928C381.955 66.208 379.715 67.008 377.091 67.328C374.467 67.584 371.075 67.712 366.915 67.712C362.819 67.712 359.459 67.584 356.835 67.328C354.211 67.008 351.971 66.208 350.115 64.928C348.259 63.648 347.331 61.664 347.331 58.976C347.331 56.352 348.195 54.432 349.923 53.216C351.715 51.936 354.147 51.072 357.219 50.624C356.899 46.912 356.739 41.6 356.739 34.688C356.739 28.48 356.867 23.488 357.123 19.712C353.411 19.328 350.499 18.432 348.387 17.024C346.275 15.616 345.219 13.408 345.219 10.4C345.219 7.456 346.243 5.28 348.291 3.872C350.339 2.46399 352.803 1.59999 355.683 1.27999C358.563 0.959995 362.275 0.799995 366.819 0.799995C371.363 0.799995 375.075 0.959995 377.955 1.27999C380.835 1.59999 383.299 2.46399 385.347 3.872C387.459 5.28 388.515 7.456 388.515 10.4C388.515 13.408 387.427 15.616 385.251 17.024C383.139 18.432 380.195 19.328 376.419 19.712C376.739 23.232 376.899 28.224 376.899 34.688C376.899 40.896 376.707 46.208 376.323 50.624ZM434.854 68.096C430.63 68.096 426.566 67.52 422.662 66.368C418.822 65.152 415.686 63.488 413.254 61.376C410.822 59.2 409.606 56.736 409.606 53.984C409.606 51.36 410.406 49.28 412.006 47.744C413.606 46.208 415.622 45.44 418.054 45.44C419.654 45.44 421.03 45.664 422.182 46.112C423.398 46.496 424.71 47.072 426.118 47.84C427.142 48.352 428.006 48.768 428.71 49.088C429.478 49.344 430.278 49.472 431.11 49.472C433.222 49.472 434.278 48.64 434.278 46.976C434.278 46.336 433.83 45.792 432.934 45.344C432.038 44.832 430.534 44.16 428.422 43.328C424.646 41.856 421.574 40.416 419.206 39.008C415.558 36.832 413.03 34.464 411.622 31.904C410.278 29.344 409.606 26.144 409.606 22.304C409.606 18.592 410.79 15.104 413.158 11.84C415.526 8.512 418.758 5.856 422.854 3.872C426.95 1.88799 431.43 0.895994 436.294 0.895994C441.03 0.895994 445.35 1.63199 449.254 3.10399C453.222 4.512 456.326 6.496 458.566 9.056C460.87 11.552 462.022 14.336 462.022 17.408C462.022 20.928 460.966 23.584 458.854 25.376C456.806 27.104 454.502 27.968 451.942 27.968C449.83 27.968 448.23 27.84 447.142 27.584C446.118 27.328 445.094 26.976 444.07 26.528C443.238 26.208 442.534 25.984 441.958 25.856C441.382 25.664 440.582 25.568 439.558 25.568C438.726 25.568 437.926 25.856 437.158 26.432C436.454 26.944 436.102 27.68 436.102 28.64C436.102 29.344 436.518 29.952 437.35 30.464C438.182 30.912 439.142 31.328 440.23 31.712C441.318 32.096 442.086 32.384 442.534 32.576C448.486 34.752 452.87 37.248 455.686 40.064C458.502 42.816 459.91 46.4 459.91 50.816C459.91 56.256 457.702 60.512 453.286 63.584C448.934 66.592 442.79 68.096 434.854 68.096ZM511.242 68.096C507.018 68.096 502.954 67.52 499.05 66.368C495.21 65.152 492.074 63.488 489.642 61.376C487.21 59.2 485.994 56.736 485.994 53.984C485.994 51.36 486.794 49.28 488.394 47.744C489.994 46.208 492.01 45.44 494.442 45.44C496.042 45.44 497.418 45.664 498.57 46.112C499.786 46.496 501.098 47.072 502.506 47.84C503.53 48.352 504.394 48.768 505.098 49.088C505.866 49.344 506.666 49.472 507.498 49.472C509.61 49.472 510.666 48.64 510.666 46.976C510.666 46.336 510.218 45.792 509.322 45.344C508.426 44.832 506.922 44.16 504.81 43.328C501.034 41.856 497.962 40.416 495.594 39.008C491.946 36.832 489.418 34.464 488.01 31.904C486.666 29.344 485.994 26.144 485.994 22.304C485.994 18.592 487.178 15.104 489.546 11.84C491.914 8.512 495.146 5.856 499.242 3.872C503.338 1.88799 507.818 0.895994 512.682 0.895994C517.418 0.895994 521.738 1.63199 525.642 3.10399C529.61 4.512 532.714 6.496 534.954 9.056C537.258 11.552 538.41 14.336 538.41 17.408C538.41 20.928 537.354 23.584 535.242 25.376C533.194 27.104 530.89 27.968 528.33 27.968C526.218 27.968 524.618 27.84 523.53 27.584C522.506 27.328 521.482 26.976 520.458 26.528C519.626 26.208 518.922 25.984 518.346 25.856C517.77 25.664 516.97 25.568 515.946 25.568C515.114 25.568 514.314 25.856 513.546 26.432C512.842 26.944 512.49 27.68 512.49 28.64C512.49 29.344 512.906 29.952 513.738 30.464C514.57 30.912 515.53 31.328 516.618 31.712C517.706 32.096 518.474 32.384 518.922 32.576C524.874 34.752 529.258 37.248 532.074 40.064C534.89 42.816 536.298 46.4 536.298 50.816C536.298 56.256 534.09 60.512 529.674 63.584C525.322 66.592 519.178 68.096 511.242 68.096ZM591.274 68.096C585.45 68.16 580.042 66.72 575.05 63.776C570.122 60.832 566.154 56.8 563.146 51.68C560.202 46.496 558.666 40.768 558.538 34.496C558.474 28.48 559.882 22.912 562.762 17.792C565.642 12.672 569.61 8.608 574.666 5.6C579.722 2.528 585.258 0.991999 591.274 0.991999C597.162 0.927996 602.602 2.4 607.594 5.408C612.65 8.416 616.65 12.544 619.594 17.792C622.538 23.04 624.01 28.832 624.01 35.168C624.01 41.12 622.538 46.592 619.594 51.584C616.65 56.576 612.65 60.544 607.594 63.488C602.602 66.432 597.162 67.968 591.274 68.096ZM591.562 49.376C594.506 49.376 597.002 48.32 599.05 46.208C601.162 44.096 602.186 41.344 602.122 37.952C602.122 34.496 601.098 31.712 599.05 29.6C597.002 27.488 594.506 26.432 591.562 26.432C588.618 26.432 586.122 27.488 584.074 29.6C582.026 31.712 581.002 34.496 581.002 37.952C581.002 41.344 582.026 44.096 584.074 46.208C586.122 48.32 588.618 49.376 591.562 49.376Z" fill="black"/>
</svg>
